<svg width="24" height="24" viewBox="0 0 24 24" fill="none" xmlns="http://www.w3.org/2000/svg">
<g clip-path="url(#clip0_594_29)">
<path d="M19.8036 18.7225C19.6897 18.7164 19.5757 18.7336 19.4687 18.773C19.3616 18.8124 19.2637 18.8732 19.1809 18.9516C19.0981 19.0301 19.0321 19.1247 18.9871 19.2295C18.942 19.3343 18.9188 19.4472 18.9188 19.5613C18.9188 19.6754 18.942 19.7883 18.9871 19.8931C19.0321 19.9979 19.0981 20.0924 19.1809 20.1709C19.2637 20.2494 19.3616 20.3102 19.4687 20.3496C19.5757 20.389 19.6897 20.4062 19.8036 20.4001H23.16C23.274 20.4062 23.3879 20.389 23.495 20.3496C23.6021 20.3102 23.7 20.2494 23.7828 20.1709C23.8656 20.0924 23.9316 19.9979 23.9766 19.8931C24.0217 19.7883 24.0449 19.6754 24.0449 19.5613C24.0449 19.4472 24.0217 19.3343 23.9766 19.2295C23.9316 19.1247 23.8656 19.0301 23.7828 18.9516C23.7 18.8732 23.6021 18.8124 23.495 18.773C23.3879 18.7336 23.274 18.7164 23.16 18.7225H19.8036ZM0.840038 18.7225C0.72611 18.7164 0.612135 18.7336 0.505066 18.773C0.397995 18.8124 0.300072 18.8732 0.217272 18.9516C0.13447 19.0301 0.0685253 19.1247 0.0234604 19.2295C-0.0216045 19.3343 -0.0448475 19.4472 -0.0448475 19.5613C-0.0448475 19.6754 -0.0216045 19.7883 0.0234604 19.8931C0.0685253 19.9979 0.13447 20.0924 0.217272 20.1709C0.300072 20.2494 0.397995 20.3102 0.505066 20.3496C0.612135 20.389 0.72611 20.4062 0.840038 20.4001H17.3652C17.4792 20.4062 17.5931 20.389 17.7002 20.3496C17.8073 20.3102 17.9052 20.2494 17.988 20.1709C18.0708 20.0924 18.1368 19.9979 18.1818 19.8931C18.2269 19.7883 18.2501 19.6754 18.2501 19.5613C18.2501 19.4472 18.2269 19.3343 18.1818 19.2295C18.1368 19.1247 18.0708 19.0301 17.988 18.9516C17.9052 18.8732 17.8073 18.8124 17.7002 18.773C17.5931 18.7336 17.4792 18.7164 17.3652 18.7225H0.840038ZM19.8036 11.2009C19.6907 11.1966 19.5781 11.2152 19.4726 11.2554C19.367 11.2957 19.2706 11.3568 19.1893 11.4352C19.1079 11.5136 19.0431 11.6075 18.9989 11.7115C18.9547 11.8155 18.9319 11.9273 18.9319 12.0403C18.9319 12.1533 18.9547 12.2651 18.9989 12.3691C19.0431 12.473 19.1079 12.567 19.1893 12.6454C19.2706 12.7237 19.367 12.7849 19.4726 12.8251C19.5781 12.8654 19.6907 12.8839 19.8036 12.8797H23.16C23.2729 12.8839 23.3855 12.8654 23.4911 12.8251C23.5967 12.7849 23.693 12.7237 23.7744 12.6454C23.8558 12.567 23.9205 12.473 23.9648 12.3691C24.009 12.2651 24.0318 12.1533 24.0318 12.0403C24.0318 11.9273 24.009 11.8155 23.9648 11.7115C23.9205 11.6075 23.8558 11.5136 23.7744 11.4352C23.693 11.3568 23.5967 11.2957 23.4911 11.2554C23.3855 11.2152 23.2729 11.1966 23.16 11.2009H19.8036ZM0.840038 11.2009C0.727137 11.1966 0.614532 11.2152 0.508968 11.2554C0.403402 11.2957 0.307041 11.3568 0.225655 11.4352C0.144268 11.5136 0.0795288 11.6075 0.0353069 11.7115C-0.00891304 11.8155 -0.0317059 11.9273 -0.0317059 12.0403C-0.0317059 12.1533 -0.00891304 12.2651 0.0353069 12.3691C0.0795288 12.473 0.144268 12.567 0.225655 12.6454C0.307041 12.7237 0.403402 12.7849 0.508968 12.8251C0.614532 12.8654 0.727137 12.8839 0.840038 12.8797H17.3664C17.4793 12.8839 17.5919 12.8654 17.6975 12.8251C17.8031 12.7849 17.8994 12.7237 17.9808 12.6454C18.0622 12.567 18.1269 12.473 18.1712 12.3691C18.2154 12.2651 18.2382 12.1533 18.2382 12.0403C18.2382 11.9273 18.2154 11.8155 18.1712 11.7115C18.1269 11.6075 18.0622 11.5136 17.9808 11.4352C17.8994 11.3568 17.8031 11.2957 17.6975 11.2554C17.5919 11.2152 17.4793 11.1966 17.3664 11.2009H0.840038ZM19.8036 3.60008C19.6897 3.59398 19.5757 3.61116 19.4687 3.65056C19.3616 3.68996 19.2637 3.75076 19.1809 3.82924C19.0981 3.90773 19.0321 4.00227 18.9871 4.10708C18.942 4.21189 18.9188 4.32479 18.9188 4.43888C18.9188 4.55297 18.942 4.66586 18.9871 4.77067C19.0321 4.87549 19.0981 4.97002 19.1809 5.04851C19.2637 5.127 19.3616 5.1878 19.4687 5.2272C19.5757 5.2666 19.6897 5.28377 19.8036 5.27768H23.16C23.274 5.28377 23.3879 5.2666 23.495 5.2272C23.6021 5.1878 23.7 5.127 23.7828 5.04851C23.8656 4.97002 23.9316 4.87549 23.9766 4.77067C24.0217 4.66586 24.0449 4.55297 24.0449 4.43888C24.0449 4.32479 24.0217 4.21189 23.9766 4.10708C23.9316 4.00227 23.8656 3.90773 23.7828 3.82924C23.7 3.75076 23.6021 3.68996 23.495 3.65056C23.3879 3.61116 23.274 3.59398 23.16 3.60008H19.8036ZM0.840038 3.60008C0.72611 3.59398 0.612135 3.61116 0.505066 3.65056C0.397995 3.68996 0.300072 3.75076 0.217272 3.82924C0.13447 3.90773 0.0685253 4.00227 0.0234604 4.10708C-0.0216045 4.21189 -0.0448475 4.32479 -0.0448475 4.43888C-0.0448475 4.55297 -0.0216045 4.66586 0.0234604 4.77067C0.0685253 4.87549 0.13447 4.97002 0.217272 5.04851C0.300072 5.127 0.397995 5.1878 0.505066 5.2272C0.612135 5.2666 0.72611 5.28377 0.840038 5.27768H17.3664C17.4804 5.28377 17.5943 5.2666 17.7014 5.2272C17.8085 5.1878 17.9064 5.127 17.9892 5.04851C18.072 4.97002 18.1379 4.87549 18.183 4.77067C18.2281 4.66586 18.2513 4.55297 18.2513 4.43888C18.2513 4.32479 18.2281 4.21189 18.183 4.10708C18.1379 4.00227 18.072 3.90773 17.9892 3.82924C17.9064 3.75076 17.8085 3.68996 17.7014 3.65056C17.5943 3.61116 17.4804 3.59398 17.3664 3.60008H0.840038Z" fill="white"/>
</g>
<defs>
<clipPath id="clip0_594_29">
<rect width="24" height="24" fill="white"/>
</clipPath>
</defs>
</svg>
