<svg width="108" height="34" viewBox="0 0 108 34" fill="none" xmlns="http://www.w3.org/2000/svg">
<path d="M25.32 4.04C25.4 4.17333 25.44 4.33333 25.44 4.52C25.4667 4.70667 25.4667 4.86667 25.44 5C25.3333 5.45333 25.2133 5.90666 25.08 6.36C24.9467 6.81333 24.8133 7.26667 24.68 7.72C23.6133 10.5733 22.7333 13.4667 22.04 16.4C21.3733 19.3333 20.7067 22.2933 20.04 25.28C19.8267 26.24 19.68 27.2133 19.6 28.2C19.52 29.1867 19.4133 30.1733 19.28 31.16C19.28 31.2133 19.2667 31.3067 19.24 31.44C19.2133 31.5467 19.1733 31.6133 19.12 31.64C18.7733 31.7733 18.4267 31.8933 18.08 32C17.7333 32.1067 17.4 32.16 17.08 32.16C16.7333 32.16 16.4533 32.04 16.24 31.8C16.0533 31.5333 15.92 31.2133 15.84 30.84C15.7867 30.4933 15.7333 30.1333 15.68 29.76C15.6533 29.3867 15.6667 29.0133 15.72 28.64C15.88 27.2533 16.04 25.88 16.2 24.52C16.36 23.1333 16.52 21.7333 16.68 20.32V19.68C16.4933 19.9467 16.3867 20.1733 16.36 20.36C16.2267 21.0267 16.0933 21.7067 15.96 22.4C15.8533 23.0667 15.7467 23.7333 15.64 24.4C15.5333 24.9867 15.44 25.5733 15.36 26.16C15.28 26.72 15.1733 27.2933 15.04 27.88C15.04 27.9333 15.0133 27.9867 14.96 28.04C14.9067 28.0933 14.8667 28.16 14.84 28.24C14.7867 28.16 14.72 28.08 14.64 28C14.5867 27.92 14.56 27.8533 14.56 27.8C14.6133 26.84 14.6667 25.88 14.72 24.92C14.8 23.96 14.8667 23 14.92 22.04C14.9467 21.8267 14.9733 21.64 15 21.48C15.0267 21.2933 15.0533 21.0933 15.08 20.88C15.08 20.8 15.0533 20.72 15 20.64C14.9733 20.5333 14.9333 20.4533 14.88 20.4C14.8267 20.4533 14.76 20.5067 14.68 20.56C14.6267 20.6133 14.5733 20.68 14.52 20.76C13.9333 21.9333 13.3333 23.0933 12.72 24.24C12.1333 25.36 11.5333 26.5067 10.92 27.68C10.6267 28.16 10.3333 28.64 10.04 29.12C9.74667 29.5733 9.42667 30.0267 9.08 30.48C8.86667 30.8267 8.61333 31.12 8.32 31.36C8.02667 31.5733 7.65333 31.68 7.2 31.68C7.09333 31.68 7 31.7333 6.92 31.84C6.84 31.92 6.74667 31.9867 6.64 32.04C6.56 32.0667 6.48 32.1067 6.4 32.16C6.34667 32.2133 6.30667 32.2133 6.28 32.16C5.90667 31.9467 5.53333 31.7467 5.16 31.56C4.81333 31.3467 4.49333 31.1067 4.2 30.84C3.82667 30.5733 3.48 30.5333 3.16 30.72V30.68C2.84 30.7067 2.57333 30.72 2.36 30.72C2.17333 30.6933 2.01333 30.64 1.88 30.56C1.77333 30.48 1.68 30.3467 1.6 30.16C1.52 29.9733 1.44 29.72 1.36 29.4C1.06667 28.5467 0.933333 27.6933 0.96 26.84C0.96 25.9867 1 25.1333 1.08 24.28C1.32 21.8533 1.69333 19.4667 2.2 17.12C2.73333 14.7733 3.45333 12.4667 4.36 10.2C4.54667 9.74667 4.74667 9.30667 4.96 8.88C5.2 8.45333 5.42667 8.02667 5.64 7.6C5.74667 7.41333 5.86667 7.26666 6 7.16C6.13333 7.02666 6.32 7.06667 6.56 7.28C6.66667 7.33333 6.78667 7.33333 6.92 7.28C7.26667 7.01333 7.58667 6.88 7.88 6.88C8.2 6.85333 8.50667 6.89333 8.8 7C9.09333 7.08 9.38667 7.21333 9.68 7.4C9.97333 7.56 10.2667 7.70667 10.56 7.84C10.8 7.97333 10.8933 8.14667 10.84 8.36C10.8133 8.57333 10.7733 8.78667 10.72 9C10.4267 9.82667 10.1467 10.6533 9.88 11.48C9.61333 12.28 9.36 13.0933 9.12 13.92C8.53333 15.9467 8.05333 17.9867 7.68 20.04C7.30667 22.0667 7.05333 24.1333 6.92 26.24C6.92 26.3733 6.90667 26.48 6.88 26.56C6.88 26.64 6.88 26.7333 6.88 26.84C6.93333 27.08 7.01333 27.2933 7.12 27.48C7.17333 27.4 7.24 27.32 7.32 27.24C7.42667 27.1333 7.50667 27.04 7.56 26.96C8.09333 25.84 8.61333 24.76 9.12 23.72C9.65333 22.6533 10.1733 21.56 10.68 20.44C11.88 17.6133 13.2533 14.9067 14.8 12.32C16.3733 9.70667 17.96 7.10667 19.56 4.52C19.7467 4.25333 19.92 4.01333 20.08 3.8C20.2667 3.56 20.4267 3.29333 20.56 3C20.7467 2.6 20.9733 2.34667 21.24 2.24C21.5333 2.10667 21.88 2.06667 22.28 2.12C22.9733 2.22667 23.5333 2.48 23.96 2.88C24.4133 3.25333 24.8667 3.64 25.32 4.04ZM5 14.12C5.02667 14.0133 5.04 13.9067 5.04 13.8C5.04 13.6933 5.04 13.5867 5.04 13.48C5.04 13.4267 5.02667 13.3733 5 13.32C4.97333 13.2667 4.94667 13.2133 4.92 13.16C4.92 13.2133 4.90667 13.2667 4.88 13.32C4.85333 13.3733 4.86667 13.4267 4.92 13.48C4.92 13.5867 4.92 13.6933 4.92 13.8C4.94667 13.9067 4.97333 14.0267 5 14.16C4.86667 14.3467 4.73333 14.52 4.6 14.68C4.49333 14.8133 4.41333 14.9733 4.36 15.16C3.98667 17.0533 3.62667 18.9467 3.28 20.84C2.93333 22.7333 2.61333 24.64 2.32 26.56C2.18667 27.2533 2.16 27.9733 2.24 28.72C2.32 29.44 2.62667 30.0933 3.16 30.68C3.56 30.1733 3.66667 29.6133 3.48 29C3.42667 28.76 3.38667 28.52 3.36 28.28C3.36 28.0133 3.34667 27.7333 3.32 27.44C3.24 24.4533 3.48 21.48 4.04 18.52C4.14667 17.7733 4.28 17.04 4.44 16.32C4.62667 15.6 4.81333 14.8667 5 14.12ZM5.6 11.04V10.88L5.52 10.96L5.6 11.04ZM16.76 18.52L16.8 18.6L16.76 18.52ZM17 18.36C17.0533 18.3067 17.08 18.2267 17.08 18.12C17.0267 18.1467 16.96 18.2 16.88 18.28C16.8267 18.3333 16.8 18.3733 16.8 18.4C16.8 18.4267 16.7867 18.4667 16.76 18.52C16.8933 18.4667 16.9733 18.4133 17 18.36ZM17.08 17L17.12 17.08L17.08 17ZM17.36 16.48C17.4667 16.32 17.5333 16.1867 17.56 16.08C17.56 16.0533 17.5467 16.04 17.52 16.04C17.5467 16.04 17.56 16.0667 17.56 16.12C17.5067 16.1733 17.4667 16.24 17.44 16.32C17.44 16.3733 17.4133 16.4267 17.36 16.48ZM48.0722 11.32C49.3255 13.96 49.1789 16.3867 47.6322 18.6C47.0189 19.5333 46.2989 20.3467 45.4722 21.04C44.6722 21.7333 43.8322 22.3867 42.9522 23C41.3522 24.0667 39.6989 25.0133 37.9922 25.84C36.3122 26.6667 34.5789 27.4533 32.7922 28.2C32.3922 28.36 32.0855 28.5067 31.8722 28.64C31.6589 28.7733 31.4989 28.9333 31.3922 29.12C31.2855 29.3067 31.2322 29.56 31.2322 29.88C31.2322 30.1733 31.2589 30.5733 31.3122 31.08C31.3389 31.32 31.4055 31.5867 31.5122 31.88C31.6455 32.1467 31.5789 32.4267 31.3122 32.72C31.0455 33.0133 30.7389 33.1867 30.3922 33.24C30.0722 33.2933 29.7255 33.3067 29.3522 33.28C28.2589 33.2 27.4455 32.6133 26.9122 31.52C26.6455 31.04 26.4589 30.7733 26.3522 30.72C26.2455 30.6667 25.9789 30.7067 25.5522 30.84C24.8855 31.0533 24.1789 31.2267 23.4322 31.36C23.1122 31.44 22.7922 31.4667 22.4722 31.44C22.1522 31.4133 21.8589 31.3333 21.5922 31.2C21.2989 31.0667 21.0589 30.88 20.8722 30.64C20.6855 30.4 20.5789 30.0933 20.5522 29.72C20.5255 29.6133 20.5655 29.5067 20.6722 29.4C20.7789 29.2933 20.8722 29.2133 20.9522 29.16C21.5389 28.9467 22.1255 28.7467 22.7122 28.56C23.2722 28.3467 23.8455 28.1333 24.4322 27.92C24.5655 27.8667 24.6989 27.8 24.8322 27.72C24.9922 27.64 25.1389 27.5733 25.2722 27.52C25.1389 27.5467 24.9922 27.56 24.8322 27.56C24.6722 27.56 24.5255 27.5733 24.3922 27.6C23.8855 27.76 23.3789 27.9333 22.8722 28.12C22.3655 28.28 21.8455 28.4267 21.3122 28.56C21.2589 28.5867 21.1655 28.56 21.0322 28.48C20.8989 28.4 20.7655 28.3333 20.6322 28.28C20.7389 28.2267 20.8189 28.16 20.8722 28.08C20.9255 28 21.0189 27.9333 21.1522 27.88C21.8722 27.56 22.5922 27.2533 23.3122 26.96C24.0589 26.64 24.8189 26.32 25.5922 26C25.8855 25.8667 26.1122 25.68 26.2722 25.44C26.4589 25.2 26.5655 24.8533 26.5922 24.4C26.6189 23.1733 26.6989 21.92 26.8322 20.64C26.9922 19.36 27.1522 18.12 27.3122 16.92C27.4989 15.6933 27.6722 14.52 27.8322 13.4C27.9922 12.2533 28.1122 11.2133 28.1922 10.28C28.1922 9.90667 28.2455 9.58667 28.3522 9.32C28.4589 9.02667 28.5522 8.73333 28.6322 8.44C28.6589 8.36 28.6589 8.29333 28.6322 8.24C28.6322 8.16 28.6322 8.09333 28.6322 8.04C28.4722 8.04 28.3522 8.05333 28.2722 8.08C27.7389 8.26667 27.3255 8.29333 27.0322 8.16C26.7655 8.02667 26.4855 7.68 26.1922 7.12C26.0322 6.85333 25.9122 6.58667 25.8322 6.32C25.7789 6.05333 25.6189 5.8 25.3522 5.56C25.1122 5.34667 25.0189 5.08 25.0722 4.76C25.1255 4.41333 25.2989 4.13333 25.5922 3.92C25.8855 3.70667 26.1922 3.52 26.5122 3.36C26.8322 3.17333 27.1522 3.01333 27.4722 2.88C28.7789 2.37333 30.1255 2.05333 31.5122 1.92C32.8989 1.76 34.3122 1.74667 35.7522 1.88C36.9522 1.98667 38.1122 2.2 39.2322 2.52C40.3789 2.81333 41.5122 3.26667 42.6322 3.88C43.7789 4.49333 44.7522 5.26667 45.5522 6.2C46.3789 7.13333 46.9789 8.29333 47.3522 9.68C47.4855 9.97333 47.6055 10.2667 47.7122 10.56C47.8189 10.8267 47.9389 11.08 48.0722 11.32ZM40.0322 4.76C40.0055 4.76 39.9789 4.77333 39.9522 4.8H39.9922C39.9922 4.8 40.0055 4.78667 40.0322 4.76ZM38.4322 4.28C38.3789 4.22667 38.3255 4.17333 38.2722 4.12C38.2189 4.06666 38.1655 4.04 38.1122 4.04C38.0055 4.09333 37.8855 4.14667 37.7522 4.2C37.6455 4.22667 37.5255 4.26667 37.3922 4.32C37.5255 4.32 37.6455 4.33333 37.7522 4.36C37.8855 4.36 38.0055 4.36 38.1122 4.36C38.2189 4.36 38.3255 4.33333 38.4322 4.28ZM35.4322 3.8C35.3789 3.8 35.2989 3.85333 35.1922 3.96C35.2455 3.96 35.2722 3.97333 35.2722 4C35.2989 4.02666 35.3389 4.04 35.3922 4.04C35.7389 4.09333 36.0589 4.13333 36.3522 4.16C36.6722 4.18666 36.9789 4.22667 37.2722 4.28C37.2189 4.2 37.1789 4.12 37.1522 4.04C37.1522 3.93333 37.1255 3.88 37.0722 3.88C36.7789 3.82667 36.4989 3.8 36.2322 3.8C35.9922 3.8 35.7255 3.8 35.4322 3.8ZM27.9122 5.08C27.9922 5.02667 28.0722 4.96 28.1522 4.88C28.2589 4.8 28.3522 4.73333 28.4322 4.68C28.2989 4.68 28.1655 4.69333 28.0322 4.72C27.9255 4.72 27.8855 4.84 27.9122 5.08ZM28.7122 4.64C28.6855 4.61333 28.6589 4.6 28.6322 4.6V4.64H28.5122H28.7122ZM29.3522 4.64C29.4589 4.58667 29.5522 4.53333 29.6322 4.48C29.7389 4.4 29.8322 4.33333 29.9122 4.28C29.8855 4.28 29.8455 4.26667 29.7922 4.24C29.7655 4.21333 29.7122 4.18666 29.6322 4.16C29.5522 4.21333 29.4589 4.28 29.3522 4.36C29.2722 4.41333 29.1922 4.48 29.1122 4.56C29.2189 4.61333 29.2989 4.64 29.3522 4.64ZM31.8322 25.16L31.7922 25.12V25.16H31.8322ZM33.2722 24.6C33.4589 24.5467 33.6189 24.52 33.7522 24.52C33.9122 24.4933 34.0589 24.4533 34.1922 24.4C34.1122 24.4267 34.0189 24.4267 33.9122 24.4C33.8322 24.3733 33.7522 24.36 33.6722 24.36C33.5922 24.3333 33.5122 24.3333 33.4322 24.36C33.3789 24.3867 33.3255 24.4667 33.2722 24.6ZM36.2722 23.12C36.3522 23.2 36.3789 23.24 36.3522 23.24C36.4055 23.24 36.4455 23.2267 36.4722 23.2C36.5255 23.1733 36.5789 23.1467 36.6322 23.12H36.2722ZM37.1522 22.8C37.0189 22.7733 36.8989 22.76 36.7922 22.76C36.6855 22.76 36.6589 22.8667 36.7122 23.08C36.7655 23.0267 36.8189 22.9867 36.8722 22.96C36.9522 22.9067 37.0455 22.8533 37.1522 22.8ZM39.3122 21.6C39.4455 21.5733 39.6455 21.5067 39.9122 21.4C39.7255 21.2933 39.5789 21.2533 39.4722 21.28C39.3655 21.28 39.3122 21.3867 39.3122 21.6ZM39.9122 21.4C40.0455 21.2133 40.1789 21.0533 40.3122 20.92C40.4722 20.76 40.6455 20.5867 40.8322 20.4C40.7255 20.4533 40.6055 20.5067 40.4722 20.56C40.3655 20.5867 40.2589 20.6267 40.1522 20.68C40.0722 20.7333 40.0055 20.8133 39.9522 20.92C39.8989 21.0267 39.8855 21.1867 39.9122 21.4ZM41.0322 20.28C41.1922 20.2533 41.3522 20.2133 41.5122 20.16C41.6722 20.1067 41.6855 19.9067 41.5522 19.56C41.4989 19.6933 41.4055 19.8133 41.2722 19.92C41.1655 20.0267 41.0855 20.1467 41.0322 20.28ZM38.3122 20.12C38.7389 20.0133 39.2855 19.72 39.9522 19.24C40.6189 18.76 41.2855 18.1867 41.9522 17.52C42.6455 16.8267 43.2855 16.08 43.8722 15.28C44.4855 14.4533 44.9389 13.6533 45.2322 12.88C45.5522 12.08 45.6722 11.3333 45.5922 10.64C45.5122 9.94667 45.1389 9.38667 44.4722 8.96C43.1389 8.10667 41.7922 7.49333 40.4322 7.12C39.0989 6.74667 37.8055 6.53333 36.5522 6.48C35.8855 6.48 35.3922 6.48 35.0722 6.48C34.7522 6.48 34.5122 6.53333 34.3522 6.64C34.2189 6.74667 34.1255 6.94666 34.0722 7.24C34.0455 7.53333 33.9655 7.97333 33.8322 8.56C33.8055 8.77333 33.7789 8.98667 33.7522 9.2C33.7255 9.41333 33.6989 9.62667 33.6722 9.84C33.5389 10.7733 33.3922 11.7733 33.2322 12.84C33.0722 13.88 32.9122 14.9467 32.7522 16.04C32.5922 17.1333 32.4322 18.2133 32.2722 19.28C32.1122 20.3467 31.9789 21.3333 31.8722 22.24C31.8189 22.4 31.8055 22.5467 31.8322 22.68C31.8855 22.8133 31.9255 22.9467 31.9522 23.08C32.0589 23.0533 32.1655 23.04 32.2722 23.04C32.4055 23.0133 32.5389 22.9733 32.6722 22.92C33.5255 22.4133 34.4589 21.96 35.4722 21.56C36.5122 21.16 37.4589 20.68 38.3122 20.12ZM67.8422 9.68C67.7355 10.5867 67.6555 11.4933 67.6022 12.4C67.5755 13.28 67.4822 14.1733 67.3222 15.08C66.8955 17.5867 66.2822 20 65.4822 22.32C64.6822 24.6133 63.5222 26.8133 62.0022 28.92C61.7089 29.32 61.3889 29.7067 61.0422 30.08C60.6955 30.4267 60.3355 30.7867 59.9622 31.16C59.1889 31.8 58.3489 32.04 57.4422 31.88C56.9355 31.7467 56.4422 31.7333 55.9622 31.84C55.5089 31.9467 55.0555 32.08 54.6022 32.24C52.3089 33.0667 50.7222 32.36 49.8422 30.12C49.4955 29.32 49.3089 28.5067 49.2822 27.68C49.2822 26.8533 49.3089 26.0133 49.3622 25.16C49.4955 22.8133 49.7889 20.5333 50.2422 18.32C50.6955 16.08 51.3489 13.8533 52.2022 11.64C52.7355 10.1467 53.4155 8.77333 54.2422 7.52C54.5622 7.01333 54.8555 6.61333 55.1222 6.32C55.3889 6.02666 55.6822 5.82667 56.0022 5.72C56.3489 5.61333 56.7489 5.57333 57.2022 5.6C57.6555 5.62667 58.2422 5.68 58.9622 5.76C59.1222 5.78667 59.2689 5.82667 59.4022 5.88C59.5622 5.90667 59.7222 5.93333 59.8822 5.96C60.3089 6.09333 60.5755 6.12 60.6822 6.04C60.7889 5.96 60.7755 5.73333 60.6422 5.36C60.4289 4.85333 60.2289 4.36 60.0422 3.88C59.8555 3.37333 59.4955 2.98666 58.9622 2.72C58.8822 2.66667 58.8022 2.58667 58.7222 2.48C58.6422 2.37333 58.5622 2.25333 58.4822 2.12C58.3489 1.96 58.3222 1.8 58.4022 1.64C58.4822 1.48 58.6555 1.4 58.9222 1.4C59.6155 1.37333 60.3089 1.38667 61.0022 1.44C61.7222 1.49333 62.4022 1.64 63.0422 1.88C63.7089 2.09333 64.3089 2.42666 64.8422 2.88C65.3755 3.33333 65.8022 3.96 66.1222 4.76C66.3089 5.18667 66.4822 5.61333 66.6422 6.04C66.8289 6.46667 66.9889 6.89333 67.1222 7.32C67.2555 7.72 67.3489 8.12 67.4022 8.52C67.4555 8.92 67.5355 9.30667 67.6422 9.68H67.8422ZM65.1222 8C65.0955 8.02667 65.0822 8.04 65.0822 8.04C65.0822 8.09333 65.0822 8.13333 65.0822 8.16C65.1089 8.16 65.1222 8.17333 65.1222 8.2V8ZM64.8822 6.92C64.8822 6.81333 64.8955 6.73333 64.9222 6.68C64.9755 6.6 64.9755 6.53333 64.9222 6.48C64.8955 6.37333 64.8422 6.29333 64.7622 6.24C64.7089 6.18667 64.6555 6.12 64.6022 6.04C64.6289 6.14666 64.6422 6.24 64.6422 6.32C64.6689 6.37333 64.6955 6.44 64.7222 6.52C64.7489 6.57333 64.7622 6.64 64.7622 6.72C64.7889 6.8 64.8289 6.86667 64.8822 6.92ZM64.6022 5.92V5.96V5.92ZM54.8822 28.52C54.5889 26.1733 54.6022 23.8667 54.9222 21.6C55.1889 19.3333 55.5489 17.1067 56.0022 14.92C56.4555 12.7333 57.1622 10.5867 58.1222 8.48C58.1755 8.42667 58.1889 8.36 58.1622 8.28C58.1622 8.17333 58.1622 8.08 58.1622 8C58.0822 8.05333 57.9889 8.10667 57.8822 8.16C57.8022 8.21333 57.7355 8.28 57.6822 8.36C57.2822 9 56.9222 9.68 56.6022 10.4C55.8289 12.32 55.2289 14.28 54.8022 16.28C54.3755 18.2533 53.9889 20.2533 53.6422 22.28C53.5089 23.1867 53.4155 24.1067 53.3622 25.04C53.3089 25.9467 53.2422 26.8667 53.1622 27.8H53.2422C53.2955 28.0667 53.3489 28.3333 53.4022 28.6C53.4555 28.84 53.5089 29.08 53.5622 29.32C53.6155 29.4533 53.6822 29.5733 53.7622 29.68C53.8422 29.7867 53.9222 29.9067 54.0022 30.04C54.1355 29.9067 54.2555 29.8133 54.3622 29.76C54.4955 29.68 54.5889 29.5733 54.6422 29.44C54.6955 29.3067 54.7489 29.16 54.8022 29C54.8555 28.84 54.8822 28.68 54.8822 28.52ZM55.9622 26.36C55.9622 26.4933 55.9889 26.64 56.0422 26.8C56.0955 26.96 56.1489 27.12 56.2022 27.28C56.3355 27.1467 56.4555 27.04 56.5622 26.96C56.6955 26.8533 56.8022 26.7333 56.8822 26.6C58.1622 24.4667 59.1489 22.2667 59.8422 20C60.5622 17.7333 61.0689 15.3867 61.3622 12.96C61.4422 12.32 61.4822 11.68 61.4822 11.04C61.5089 10.4 61.5355 9.76 61.5622 9.12H61.4822C61.4555 8.74667 61.3755 8.37333 61.2422 8C61.2155 7.86667 61.1622 7.76 61.0822 7.68C61.0289 7.6 60.9755 7.50667 60.9222 7.4C60.8155 7.45333 60.6955 7.52 60.5622 7.6C60.4289 7.65333 60.3355 7.72 60.2822 7.8C60.0155 8.22667 59.7622 8.65333 59.5222 9.08C59.3089 9.50667 59.1222 9.94667 58.9622 10.4C57.9489 12.9867 57.2289 15.6133 56.8022 18.28C56.3755 20.92 56.0955 23.6133 55.9622 26.36ZM61.2422 27.32C62.2555 25.5867 63.0555 23.8 63.6422 21.96C64.2555 20.12 64.7489 18.24 65.1222 16.32C65.3355 15.1467 65.4822 14 65.5622 12.88C65.6689 11.76 65.6555 10.6133 65.5222 9.44C65.4689 9.52 65.4022 9.6 65.3222 9.68C65.2422 9.73333 65.2022 9.82667 65.2022 9.96C65.1755 10.1467 65.1755 10.3333 65.2022 10.52C65.2555 10.7067 65.2822 10.8933 65.2822 11.08C65.0955 13.5067 64.6422 15.8667 63.9222 18.16C63.2289 20.4533 62.3089 22.7067 61.1622 24.92C60.6555 25.9067 60.0955 26.8667 59.4822 27.8C58.8955 28.7333 58.2555 29.6267 57.5622 30.48C57.4822 30.5333 57.4289 30.6133 57.4022 30.72C57.3755 30.8267 57.3355 30.9467 57.2822 31.08C57.4155 31.08 57.5489 31.08 57.6822 31.08C57.8155 31.08 57.9489 31.04 58.0822 30.96C58.3489 30.7733 58.6022 30.5867 58.8422 30.4C59.1089 30.2133 59.3489 30 59.5622 29.76C59.8555 29.3867 60.1489 29 60.4422 28.6C60.7355 28.2 61.0022 27.7733 61.2422 27.32ZM95.3263 6.28C95.5929 6.89333 95.4729 7.38667 94.9663 7.76C94.4329 8.16 93.9263 8.57333 93.4463 9C92.9929 9.42667 92.4996 9.82667 91.9663 10.2C89.6996 11.72 87.3663 13.12 84.9663 14.4C82.5929 15.68 80.1129 16.8667 77.5263 17.96C77.1529 18.0933 76.8063 18.2933 76.4863 18.56C76.1929 18.8 75.7929 18.9467 75.2863 19C75.1263 19 75.0063 19.0667 74.9263 19.2C74.8463 19.3067 74.8063 19.44 74.8063 19.6C74.8063 19.76 74.8463 19.9333 74.9263 20.12C75.0329 20.28 75.1663 20.4133 75.3263 20.52C76.4463 21.2667 77.5663 22 78.6863 22.72C79.8063 23.44 80.9263 24.1733 82.0463 24.92C82.5263 25.24 83.0063 25.5733 83.4863 25.92C83.9663 26.24 84.4729 26.56 85.0063 26.88C85.9663 27.52 86.6596 28.2933 87.0863 29.2C87.1663 29.4133 87.1529 29.5733 87.0463 29.68C86.9663 29.76 86.8063 29.76 86.5663 29.68C86.2729 29.6 85.9929 29.4933 85.7263 29.36C85.4596 29.2 85.1796 29.04 84.8863 28.88C83.5263 28.0267 82.1663 27.1867 80.8063 26.36C79.4729 25.5067 78.1396 24.6533 76.8063 23.8C76.5129 23.5867 76.2196 23.4133 75.9263 23.28C75.6329 23.12 75.3529 22.96 75.0863 22.8C74.5529 22.48 74.2463 22.5867 74.1663 23.12C74.1129 23.7067 74.0329 24.2933 73.9263 24.88C73.8196 25.4667 73.7529 26.0533 73.7263 26.64C73.5929 27.4667 73.4863 28.28 73.4063 29.08C73.3263 29.8533 73.2196 30.6533 73.0863 31.48C73.0596 31.7733 73.0196 32 72.9663 32.16C72.9129 32.32 72.8329 32.44 72.7263 32.52C72.6196 32.6267 72.4596 32.6933 72.2463 32.72C72.0596 32.7467 71.7929 32.7733 71.4463 32.8C71.3129 32.8 71.1796 32.8 71.0463 32.8C70.9396 32.8 70.8196 32.7733 70.6863 32.72C69.9663 32.6933 69.4729 32.56 69.2063 32.32C68.9663 32.08 68.8863 31.64 68.9663 31C69.1529 29.4 69.3529 27.8267 69.5663 26.28C69.7796 24.7067 69.9929 23.1333 70.2063 21.56C70.2863 21.32 70.2729 21.1333 70.1663 21C70.0863 20.84 69.9396 20.68 69.7263 20.52C69.2463 20.2267 68.8063 19.9067 68.4063 19.56C68.0063 19.1867 67.6996 18.7333 67.4863 18.2C67.3529 17.6667 67.3262 17.3333 67.4062 17.2C67.4863 17.04 67.7796 16.8667 68.2863 16.68C68.7929 16.5467 69.2729 16.3867 69.7263 16.2C70.2063 16.0133 70.6863 15.7867 71.1663 15.52C71.3796 15.4133 71.5396 15.24 71.6463 15C71.7529 14.7333 71.8329 14.48 71.8863 14.24C72.4996 12.16 73.0463 10.08 73.5263 8C74.0063 5.89333 74.4329 3.77333 74.8063 1.64C74.8596 1.18667 74.9263 0.946666 75.0063 0.92C75.1129 0.893332 75.3796 0.999998 75.8063 1.24C75.9663 1.32 76.1263 1.4 76.2863 1.48C76.4729 1.53333 76.6463 1.58666 76.8063 1.64C77.3129 1.8 77.6329 1.96 77.7663 2.12C77.8996 2.25333 77.9929 2.57333 78.0463 3.08C77.9129 3.93333 77.7796 4.81333 77.6463 5.72C77.5129 6.6 77.3396 7.48 77.1263 8.36C77.0196 9.05333 76.8863 9.76 76.7263 10.48C76.5929 11.1733 76.4596 11.88 76.3263 12.6C76.2729 12.7333 76.2729 12.8933 76.3263 13.08C76.4329 13.0267 76.5529 13 76.6863 13C76.8196 13 76.9129 12.96 76.9663 12.88C77.0996 12.6667 77.2196 12.4667 77.3263 12.28C77.4329 12.0933 77.5129 11.8933 77.5663 11.68C77.7796 10.88 77.9796 10.08 78.1663 9.28C78.3529 8.45333 78.5396 7.64 78.7263 6.84C78.7529 6.73333 78.8329 6.61333 78.9663 6.48C78.9663 6.53333 78.9796 6.61333 79.0063 6.72C79.0329 6.8 79.0329 6.86667 79.0063 6.92C78.8729 7.72 78.7129 8.53333 78.5263 9.36C78.3663 10.16 78.2063 10.96 78.0463 11.76C78.0463 11.8667 78.0596 11.96 78.0863 12.04C78.1129 12.12 78.1396 12.2 78.1663 12.28C78.2463 12.2533 78.3129 12.24 78.3663 12.24C78.4463 12.24 78.5129 12.2267 78.5663 12.2C80.2463 11.2933 81.8996 10.4 83.5263 9.52C85.1529 8.64 86.7796 7.74667 88.4063 6.84C89.0996 6.44 89.7529 6.01333 90.3663 5.56C90.9796 5.08 91.6196 4.61333 92.2863 4.16C92.4996 4 92.7129 3.92 92.9263 3.92C93.1663 3.92 93.4329 4.01333 93.7263 4.2C94.1529 4.49333 94.4729 4.82667 94.6863 5.2C94.8996 5.54667 95.1129 5.90667 95.3263 6.28ZM106.958 27.6C107.011 27.9467 107.051 28.2933 107.078 28.64C107.131 28.96 107.184 29.2933 107.238 29.64C107.371 30.2533 107.198 30.6933 106.718 30.96C106.424 31.1467 106.131 31.32 105.838 31.48C105.544 31.64 105.251 31.8 104.958 31.96C104.424 32.1733 103.918 32.1867 103.438 32C102.958 31.7867 102.611 31.3733 102.398 30.76C102.184 29.96 101.971 29.1467 101.758 28.32C101.544 27.4667 101.358 26.6133 101.198 25.76C101.118 25.2267 101.051 24.68 100.998 24.12C100.971 23.5333 100.931 22.9733 100.878 22.44C100.824 22.1467 100.731 21.9333 100.598 21.8C100.491 21.6667 100.291 21.6 99.9978 21.6C98.7711 21.6 97.5845 21.56 96.4378 21.48C96.0645 21.4533 95.7711 21.5067 95.5578 21.64C95.3711 21.7733 95.2111 22.0267 95.0778 22.4C94.7845 23.3867 94.4645 24.3867 94.1178 25.4C93.7978 26.3867 93.4645 27.3867 93.1178 28.4C93.0645 28.6133 92.9978 28.8267 92.9178 29.04C92.8378 29.2267 92.7711 29.4267 92.7178 29.64C92.6911 29.72 92.6511 29.8133 92.5978 29.92C92.5711 30.0267 92.5178 30.12 92.4378 30.2C92.3045 30.4933 92.0645 30.7067 91.7178 30.84C91.3978 30.9467 91.0911 30.9333 90.7978 30.8C90.6111 30.72 90.4911 30.64 90.4378 30.56C90.3845 30.4533 90.3578 30.36 90.3578 30.28C90.3845 30.1733 90.4111 30.0667 90.4378 29.96C90.4911 29.8267 90.5178 29.7067 90.5178 29.6C90.9445 28.4 91.3578 27.2133 91.7578 26.04C92.1578 24.8667 92.5578 23.68 92.9578 22.48C92.9845 22.4267 92.9978 22.36 92.9978 22.28C93.0245 22.1733 93.0511 22.0933 93.0778 22.04C93.2645 21.6133 93.1311 21.4267 92.6778 21.48C92.0645 21.48 91.4778 21.48 90.9178 21.48C90.3578 21.48 89.7978 21.4933 89.2378 21.52C88.9978 21.52 88.7978 21.52 88.6378 21.52C88.5045 21.52 88.3978 21.4933 88.3178 21.44C88.2645 21.3867 88.2111 21.2933 88.1578 21.16C88.1311 21.0267 88.0911 20.84 88.0378 20.6C88.0111 20.4933 87.9845 20.3867 87.9578 20.28C87.9311 20.1733 87.9045 20.0533 87.8778 19.92C87.7978 19.0667 88.1711 18.64 88.9978 18.64C89.7711 18.6133 90.5311 18.6 91.2778 18.6C92.0245 18.5733 92.7845 18.5867 93.5578 18.64C93.9311 18.6667 94.1978 18.6133 94.3578 18.48C94.5445 18.3467 94.7045 18.12 94.8378 17.8C95.2378 16.8667 95.6378 15.96 96.0378 15.08C96.4645 14.1733 96.9045 13.2667 97.3578 12.36C98.1311 10.84 98.9178 9.38667 99.7178 8C99.9845 7.6 100.171 7.18667 100.278 6.76C100.384 6.33333 100.438 5.89333 100.438 5.44C100.438 5.04 100.451 4.64 100.478 4.24C100.531 3.84 100.584 3.45333 100.638 3.08C100.691 2.41333 101.024 2.09333 101.638 2.12C101.984 2.12 102.318 2.12 102.638 2.12C102.958 2.09333 103.264 2.06667 103.558 2.04H103.518H103.558V2.08C103.531 2.08 103.518 2.06667 103.518 2.04C103.518 2.17333 103.518 2.32 103.518 2.48C103.544 2.64 103.531 2.77333 103.478 2.88C103.264 3.52 103.158 4.17333 103.158 4.84C103.158 5.48 103.171 6.13333 103.198 6.8C103.198 6.85333 103.198 6.90667 103.198 6.96C103.224 6.98667 103.238 7.02667 103.238 7.08C103.291 7.02667 103.318 6.97333 103.318 6.92C103.318 6.86667 103.331 6.82667 103.358 6.8C103.704 6.45333 103.878 6.05333 103.878 5.6C103.878 5.12 103.944 4.69333 104.078 4.32C104.131 4.16 104.158 4.02667 104.158 3.92C104.158 3.78667 104.184 3.65333 104.238 3.52C104.371 3.25333 104.544 3.12 104.758 3.12C104.998 3.12 105.171 3.25333 105.278 3.52C105.358 3.73333 105.438 3.98666 105.518 4.28C105.598 4.54667 105.638 4.8 105.638 5.04C105.664 6.21333 105.664 7.37333 105.638 8.52C105.638 9.66667 105.664 10.84 105.718 12.04C105.744 13.16 105.784 14.28 105.838 15.4C105.891 16.52 105.944 17.64 105.998 18.76C106.024 19 106.064 19.2 106.118 19.36C106.198 19.52 106.371 19.6667 106.638 19.8C106.824 19.9333 106.958 20.1333 107.038 20.4C107.144 20.6667 107.224 20.92 107.278 21.16C107.331 21.3733 107.358 21.6133 107.358 21.88C107.358 22.1467 107.144 22.32 106.718 22.4C106.638 22.4267 106.571 22.5333 106.518 22.72C106.464 22.9067 106.438 23.0667 106.438 23.2C106.491 23.9467 106.571 24.68 106.678 25.4C106.784 26.12 106.878 26.8533 106.958 27.6ZM100.038 19.16C100.464 19.24 100.678 19.04 100.678 18.56V14.52H100.638V10.32C100.638 10.24 100.611 10.1733 100.558 10.12C100.531 10.04 100.504 9.97333 100.478 9.92C100.424 9.97333 100.344 10.0267 100.238 10.08C100.158 10.1067 100.091 10.1467 100.038 10.2C100.011 10.2533 99.9845 10.3067 99.9578 10.36C99.9578 10.4133 99.9311 10.4667 99.8778 10.52C99.3445 11.8 98.8245 13.0533 98.3178 14.28C97.8111 15.5067 97.3045 16.7467 96.7978 18C96.6645 18.2933 96.6511 18.4933 96.7578 18.6C96.8645 18.7067 97.0378 18.7733 97.2778 18.8C97.7311 18.8533 98.1845 18.9067 98.6378 18.96C99.1178 19.0133 99.5845 19.08 100.038 19.16ZM103.878 7.36L103.838 7.4H103.878V7.36ZM90.0778 29.04C90.0245 29.44 90.1711 29.6267 90.5178 29.6C90.3845 29.6533 90.2245 29.7067 90.0378 29.76C89.8778 29.7867 89.8645 29.9467 89.9978 30.24C90.0245 30.2933 89.9845 30.36 89.8778 30.44C89.7711 30.4933 89.7045 30.52 89.6778 30.52C89.6245 30.4667 89.5445 30.4133 89.4378 30.36C89.3578 30.28 89.3178 30.2267 89.3178 30.2C89.5045 29.56 89.6911 28.9333 89.8778 28.32C90.0645 27.7067 90.2511 27.0933 90.4378 26.48C90.4645 26.4267 90.4911 26.4 90.5178 26.4C90.5711 26.3733 90.6111 26.3333 90.6378 26.28V26.64C90.5311 27.04 90.4378 27.4533 90.3578 27.88C90.2778 28.28 90.1845 28.6667 90.0778 29.04Z" fill="white"/>
</svg>
